<svg xmlns="http://www.w3.org/2000/svg" width="1280" height="720" viewBox="0 0 1280 720" fill="none">
  <rect width="1280" height="720" rx="28" fill="#0F172A"/>
  <rect x="32" y="32" width="1216" height="656" rx="24" fill="#E2E8F0"/>
  <rect x="58" y="58" width="1164" height="78" rx="18" fill="#F8FAFC"/>
  <text x="92" y="108" fill="#0F172A" font-family="Segoe UI, Arial, sans-serif" font-size="32" font-weight="700">SQL Manager &amp; Schema Health</text>
  <rect x="58" y="166" width="772" height="474" rx="22" fill="#111827"/>
  <rect x="860" y="166" width="362" height="474" rx="22" fill="#F8FAFC"/>
  <rect x="92" y="206" width="212" height="20" rx="10" fill="#22C55E"/>
  <rect x="92" y="246" width="704" height="58" rx="16" fill="#1E293B"/>
  <rect x="92" y="328" width="704" height="232" rx="18" fill="#020617"/>
  <rect x="92" y="584" width="158" height="28" rx="14" fill="#38BDF8"/>
  <rect x="272" y="584" width="182" height="28" rx="14" fill="#F59E0B"/>
  <rect x="896" y="208" width="180" height="18" rx="9" fill="#0F172A"/>
  <rect x="896" y="246" width="258" height="78" rx="16" fill="#DCFCE7"/>
  <rect x="896" y="346" width="258" height="78" rx="16" fill="#DBEAFE"/>
  <rect x="896" y="446" width="258" height="78" rx="16" fill="#FEF3C7"/>
  <rect x="896" y="548" width="258" height="28" rx="14" fill="#22C55E"/>
  <text x="58" y="676" fill="#475569" font-family="Segoe UI, Arial, sans-serif" font-size="20">Preview placeholder for SQL Manager, schema health summary and guarded data tooling.</text>
</svg>
